<?xml version="1.0" standalone="no"?>
<!DOCTYPE svg PUBLIC "-//W3C//DTD SVG 20010904//EN"
 "http://www.w3.org/TR/2001/REC-SVG-20010904/DTD/svg10.dtd">
<svg version="1.0" xmlns="http://www.w3.org/2000/svg"
 width="521.000000pt" height="237.000000pt" viewBox="0 0 521.000000 237.000000"
 preserveAspectRatio="xMidYMid meet">

<g transform="translate(0.000000,237.000000) scale(0.100000,-0.100000)"
fill="#000000" stroke="none">
<path d="M235 1351 c-75 -35 -105 -85 -105 -178 0 -135 124 -219 247 -168 52
22 66 35 52 51 -8 10 -17 9 -45 -8 -49 -29 -124 -21 -164 17 -53 51 -60 165
-12 219 42 46 117 59 174 30 28 -14 32 -14 46 0 14 14 11 17 -29 35 -55 26
-112 26 -164 2z"/>
<path d="M595 1352 c-74 -36 -105 -87 -105 -173 0 -60 18 -105 56 -140 86 -79
241 -53 289 48 25 50 25 136 0 186 -38 81 -156 119 -240 79z m146 -38 c36 -18
69 -83 69 -134 0 -53 -33 -116 -71 -135 -48 -25 -122 -16 -159 20 -71 68 -50
220 35 255 33 14 94 11 126 -6z"/>
<path d="M930 1180 c0 -183 1 -190 20 -190 19 0 20 7 20 153 l0 152 68 -120
c51 -89 73 -120 87 -120 15 0 36 30 85 120 l65 120 3 -152 c2 -145 4 -153 22
-153 19 0 20 8 20 190 l0 190 -24 0 c-21 0 -35 -19 -97 -134 l-74 -135 -75
135 c-61 110 -79 134 -97 134 l-23 0 0 -190z"/>
<path d="M1410 1180 l0 -190 25 0 c24 0 24 2 27 83 l3 82 78 3 c59 2 77 6 77
17 0 12 -17 15 -80 15 l-81 0 3 73 3 72 88 3 c68 2 87 6 87 17 0 12 -21 15
-115 15 l-115 0 0 -190z"/>
<path d="M1681 1349 c6 -12 38 -65 70 -117 58 -94 59 -97 59 -169 0 -66 2 -73
20 -73 18 0 20 7 20 71 0 70 1 72 70 187 54 90 66 118 54 120 -28 6 -39 -5
-89 -97 -45 -82 -65 -107 -65 -82 0 5 -23 48 -51 95 -41 71 -54 86 -75 86 -22
0 -24 -2 -13 -21z"/>
<path d="M2279 1347 c-40 -27 -57 -77 -40 -120 10 -26 22 -33 134 -81 32 -14
37 -20 37 -49 0 -64 -72 -90 -139 -51 -25 15 -33 16 -43 5 -17 -17 20 -48 68
-57 87 -16 159 34 159 111 0 54 -21 79 -89 101 -65 21 -86 40 -86 76 0 38 47
61 94 46 17 -5 38 -12 47 -15 9 -2 19 2 23 12 4 12 -3 20 -29 31 -49 20 -97
17 -136 -9z"/>
<path d="M2615 1355 c-107 -37 -147 -185 -79 -288 66 -100 225 -101 300 -2 22
30 29 50 32 100 10 148 -112 240 -253 190z m136 -40 c94 -49 93 -225 -1 -272
-65 -33 -159 -2 -186 62 -31 76 -9 170 48 205 39 24 98 26 139 5z"/>
<path d="M2940 1180 l0 -190 105 0 c98 0 105 1 105 20 0 18 -7 20 -80 20 l-80
0 0 170 0 170 -25 0 -25 0 0 -190z"/>
<path d="M3210 1238 c0 -107 3 -140 18 -167 49 -98 190 -108 255 -17 20 28 22
45 25 174 l4 142 -25 0 -25 0 -4 -141 c-3 -140 -3 -141 -31 -165 -41 -35 -99
-33 -138 5 l-29 29 0 136 0 136 -25 0 -25 0 0 -132z"/>
<path d="M3560 1355 c0 -10 15 -15 58 -17 l57 -3 3 -172 2 -173 25 0 25 0 2
173 3 172 58 3 c42 2 57 7 57 17 0 13 -25 15 -145 15 -120 0 -145 -2 -145 -15z"/>
<path d="M3920 1180 c0 -183 1 -190 20 -190 19 0 20 7 20 190 0 183 -1 190
-20 190 -19 0 -20 -7 -20 -190z"/>
<path d="M4155 1351 c-48 -22 -69 -44 -90 -94 -29 -70 -10 -174 41 -219 52
-46 137 -60 201 -33 50 21 72 42 94 90 33 73 16 180 -37 227 -54 48 -142 60
-209 29z m153 -41 c39 -24 62 -73 62 -130 0 -89 -55 -150 -135 -150 -80 0
-135 61 -135 150 0 89 55 150 135 150 23 0 54 -9 73 -20z"/>
<path d="M4490 1181 c0 -183 1 -191 20 -191 18 0 20 8 22 148 l3 147 114 -147
c63 -82 120 -148 128 -148 10 0 13 38 13 190 0 183 -1 190 -20 190 -19 0 -20
-7 -20 -146 l0 -147 -111 144 c-63 82 -119 145 -130 147 -18 3 -19 -5 -19
-187z"/>
<path d="M4930 1352 c-48 -24 -67 -75 -47 -124 13 -31 25 -39 87 -63 48 -18
74 -34 79 -48 26 -70 -63 -116 -138 -71 -24 14 -34 15 -42 7 -25 -25 42 -63
109 -63 65 0 122 56 122 118 0 43 -30 73 -100 102 -70 28 -86 45 -77 82 10 38
58 52 105 32 37 -15 62 -13 62 6 0 15 -62 40 -97 40 -15 0 -44 -8 -63 -18z"/>
</g>
</svg>
